:FULLY-SPECIFIED
:FORCE-ALL-JOINTS-BE-3DOF
:DEGREES
243
root 9.25837 16.3883 -2.5615 9.64806 -6.11544 -2.38363
lfemur -43.8799 7.91686 -21.794
ltibia 38.5278 0 0
lfoot -9.67584 7.12395 0
ltoes 1.51776 0 0
rfemur 10.6293 1.30032 20.6493
rtibia 29.9747 0 0
rfoot 9.86643 5.49734 0
rtoes -15.1149 0 0
lowerback -6.28758 2.41046 -0.0766818
upperback -2.8517 3.157 1.96073
thorax 0.45323 1.60588 2.27349
lowerneck -18.5837 -5.923 -13.8431
upperneck 17.2696 -7.43406 14.4071
head 9.61652 -2.90372 6.33202
lclavicle 2.8859e-14 1.86683e-14 0
lhumerus -47.1033 -5.48198 89.9334
lradius 20.1523 0 0
lwrist -4.13428 0 0
lhand -9.63281 -25.0333 0
lfingers 7.12502 0 0
lthumb 16.337 4.29442 0
rclavicle 2.8859e-14 1.86683e-14 0
rhumerus -46.2942 10.5068 -87.8645
rradius 42.6486 0 0
rwrist -25.8377 0 0
rhand -30.2023 -27.61 0
rfingers 7.12502 0 0
rthumb -3.51284 -57.5605 0
244
root 9.28965 16.3935 -2.39836 9.63857 -6.19928 -2.18194
lfemur -43.5387 8.24266 -22.2975
ltibia 39.2217 0 0
lfoot -9.52609 6.82287 0
ltoes 2.26358 0 0
rfemur 10.0764 1.09951 20.2347
rtibia 31.3527 0 0
rfoot 10.3592 5.28849 0
rtoes -15.2907 0 0
lowerback -6.19603 2.35563 -0.246317
upperback -2.90048 3.10209 1.895
thorax 0.350709 1.57809 2.29036
lowerneck -18.7161 -5.90005 -13.8001
upperneck 17.4022 -7.40011 14.3601
head 9.67751 -2.88454 6.31613
lclavicle 2.99499e-14 1.97093e-14 0
lhumerus -46.7301 -5.43312 89.7071
lradius 20.0545 0 0
lwrist -4.36495 0 0
lhand -9.52133 -24.7767 0
lfingers 7.12502 0 0
lthumb 16.4444 4.54329 0
rclavicle 2.99499e-14 1.97093e-14 0
rhumerus -46.5566 10.3534 -87.9011
rradius 42.235 0 0
rwrist -25.764 0 0
rhand -30.1524 -27.5125 0
rfingers 7.12502 0 0
rthumb -3.46465 -57.4638 0
245
root 9.32002 16.399 -2.23756 9.62189 -6.27006 -1.98852
lfemur -43.1688 8.53609 -22.772
ltibia 39.8328 0 0
lfoot -9.40581 6.54358 0
ltoes 2.94465 0 0
rfemur 9.49448 0.90924 19.8487
rtibia 32.6718 0 0
rfoot 10.7557 5.06284 0
rtoes -15.4537 0 0
lowerback -6.11006 2.29617 -0.407412
upperback -2.94009 3.03979 1.83503
thorax 0.26165 1.54648 2.30847
lowerneck -18.8448 -5.87436 -13.7558
upperneck 17.5338 -7.36252 14.3109
head 9.73698 -2.86405 6.29978
lclavicle 3.08231e-14 2.06633e-14 0
lhumerus -46.3295 -5.40623 89.4917
lradius 19.9715 0 0
lwrist -4.5712 0 0
lhand -9.42709 -24.5404 0
lfingers 7.12502 0 0
lthumb 16.5352 4.77301 0
rclavicle 3.08231e-14 2.06633e-14 0
rhumerus -46.7971 10.2076 -87.9264
rradius 41.8547 0 0
rwrist -25.6912 0 0
rhand -30.1037 -27.4117 0
rfingers 7.12502 0 0
rthumb -3.41763 -57.3638 0
246
root 9.34937 16.405 -2.07931 9.59761 -6.3271 -1.80454
lfemur -42.7692 8.79386 -23.214
ltibia 40.3524 0 0
lfoot -9.31736 6.28832 0
ltoes 3.5544 0 0
rfemur 8.88388 0.730707 19.4942
rtibia 33.9238 0 0
rfoot 11.0487 4.81989 0
rtoes -15.6026 0 0
lowerback -6.03044 2.23193 -0.558898
upperback -2.96973 2.96973 1.78141
thorax 0.187366 1.51086 2.32782
lowerneck -18.9692 -5.84574 -13.7098
upperneck 17.6642 -7.32103 14.2593
head 9.79474 -2.84215 6.28293
lclavicle 3.14609e-14 2.15228e-14 0
lhumerus -45.9004 -5.40282 89.2883
lradius 19.904 0 0
lwrist -4.75154 0 0
lhand -9.3514 -24.3268 0
lfingers 7.12502 0 0
lthumb 16.6081 4.98139 0
rclavicle 3.14609e-14 2.15228e-14 0
rhumerus -47.0135 10.0704 -87.9398
rradius 41.5113 0 0
rwrist -25.6197 0 0
rhand -30.0563 -27.3079 0
rfingers 7.12502 0 0
rthumb -3.37186 -57.2608 0
247
root 9.3776 16.4114 -1.9238 9.56531 -6.36973 -1.63119
lfemur -42.3391 9.01265 -23.6202
ltibia 40.7712 0 0
lfoot -9.26312 6.05932 0
ltoes 4.08629 0 0
rfemur 8.24517 0.565113 19.1742
rtibia 35.1009 0 0
rfoot 11.2311 4.55909 0
rtoes -15.7361 0 0
lowerback -5.95795 2.16274 -0.699705
upperback -2.98862 2.89155 1.73467
thorax 0.129166 1.47106 2.34844
lowerneck -19.0892 -5.81399 -13.6623
upperneck 17.7931 -7.27539 14.2053
head 9.85061 -2.81874 6.26556
lclavicle 3.18454e-14 2.22799e-14 0
lhumerus -45.4416 -5.42441 89.0982
lradius 19.8529 0 0
lwrist -4.90451 0 0
lhand -9.29558 -24.1381 0
lfingers 7.12502 0 0
lthumb 16.6619 5.1662 0
rclavicle 3.18454e-14 2.22799e-14 0
rhumerus -47.2038 9.9428 -87.9407
rradius 41.2082 0 0
rwrist -25.55 0 0
rhand -30.0103 -27.201 0
rfingers 7.12502 0 0
rthumb -3.32743 -57.1547 0
248
root 9.40462 16.4182 -1.77125 9.52458 -6.39725 -1.46964
lfemur -41.8775 9.18918 -23.9869
ltibia 41.0803 0 0
lfoot -9.24545 5.8588 0
ltoes 4.53374 0 0
rfemur 7.57885 0.413656 18.8915
rtibia 36.1947 0 0
rfoot 11.2954 4.27992 0
rtoes -15.8528 0 0
lowerback -5.89337 2.08844 -0.828766
upperback -2.99598 2.80491 1.69539
thorax 0.088364 1.42687 2.37033
lowerneck -19.2041 -5.77891 -13.6129
upperneck 17.9202 -7.22532 14.1487
head 9.9044 -2.79374 6.24764
lclavicle 3.1959e-14 2.29271e-14 0
lhumerus -44.9518 -5.47251 88.9223
lradius 19.8189 0 0
lwrist -5.02865 0 0
lhand -9.26093 -23.9766 0
lfingers 7.12502 0 0
lthumb 16.6953 5.32526 0
rclavicle 3.1959e-14 2.29271e-14 0
rhumerus -47.366 9.8259 -87.9288
rradius 40.9489 0 0
rwrist -25.4825 0 0
rhand -29.9658 -27.0912 0
rfingers 7.12502 0 0
rthumb -3.28444 -57.0456 0
